<svg width="313" height="397" viewBox="0 0 313 397" fill="none" xmlns="http://www.w3.org/2000/svg">
<g opacity="0.72" clip-path="url(#clip0_107_820)">
<path d="M-75.9834 553.543L-83.3066 553.543L257.244 212.993L264.567 212.993L-75.9834 553.543Z" fill="url(#paint0_linear_107_820)" fill-opacity="0.34"/>
<path d="M-102.532 552.628L-109.855 552.628L300.271 142.502L307.594 142.502L-102.532 552.628Z" fill="url(#paint1_linear_107_820)" fill-opacity="0.34"/>
<path d="M-124.021 552.628L-131.826 552.628L305.282 115.039L313.087 115.039L-124.021 552.628Z" fill="url(#paint2_linear_107_820)" fill-opacity="0.34"/>
<path d="M-145.639 552.628L-153.797 552.628L303.098 94.8985L311.256 94.8985L-145.639 552.628Z" fill="url(#paint3_linear_107_820)" fill-opacity="0.34"/>
<path d="M-167.321 552.628L-175.768 552.628L297.316 80.2512L305.763 80.2512L-167.321 552.628Z" fill="url(#paint4_linear_107_820)" fill-opacity="0.34"/>
<path d="M-188.906 552.628L-197.739 552.628L296.93 58.2802L305.763 58.2802L-188.906 552.628Z" fill="url(#paint5_linear_107_820)" fill-opacity="0.34"/>
<path d="M-210.492 552.628L-219.71 552.628L296.545 36.3091L305.764 36.3091L-210.492 552.628Z" fill="url(#paint6_linear_107_820)" fill-opacity="0.34"/>
<path d="M-232.142 552.628L-241.681 552.628L292.562 18L302.101 18L-232.142 552.628Z" fill="url(#paint7_linear_107_820)" fill-opacity="0.34"/>
<path d="M-256.715 552.628L-263.652 552.628L124.888 164.473L131.826 164.473L-256.715 552.628Z" fill="url(#paint8_linear_107_820)" fill-opacity="0.34"/>
<path d="M-278.3 552.628L-285.623 552.628L124.503 142.502L131.826 142.502L-278.3 552.628Z" fill="url(#paint9_linear_107_820)" fill-opacity="0.34"/>
<path d="M-300.078 552.628L-307.594 552.628L113.325 131.517L120.841 131.517L-300.078 552.628Z" fill="url(#paint10_linear_107_820)" fill-opacity="0.34"/>
<path d="M-303.571 468.377L-311.087 468.377L109.832 47.2659L117.348 47.2659L-303.571 468.377Z" fill="url(#paint11_linear_107_820)" fill-opacity="0.34"/>
<path d="M-124.571 690.377L-132.087 690.377L288.832 269.266L296.348 269.266L-124.571 690.377Z" fill="url(#paint12_linear_107_820)" fill-opacity="0.34"/>
<path d="M-321.793 552.628L-329.565 552.628L105.744 116.87L113.517 116.87L-321.793 552.628Z" fill="url(#paint13_linear_107_820)" fill-opacity="0.34"/>
<path d="M-325.285 468.377L-333.058 468.377L102.252 32.6185L110.025 32.6185L-325.285 468.377Z" fill="url(#paint14_linear_107_820)" fill-opacity="0.34"/>
<path d="M-146.285 690.377L-154.058 690.377L281.252 254.619L289.025 254.619L-146.285 690.377Z" fill="url(#paint15_linear_107_820)" fill-opacity="0.34"/>
<path d="M-343.474 552.628L-351.536 552.628L99.9623 100.391L108.024 100.391L-343.474 552.628Z" fill="url(#paint16_linear_107_820)" fill-opacity="0.34"/>
<path d="M-164.474 774.628L-172.536 774.628L278.962 322.391L287.024 322.391L-164.474 774.628Z" fill="url(#paint17_linear_107_820)" fill-opacity="0.34"/>
<path d="M-346.967 468.377L-355.029 468.377L96.4696 16.1403L104.532 16.1403L-346.967 468.377Z" fill="url(#paint18_linear_107_820)" fill-opacity="0.34"/>
<path d="M-167.967 690.377L-176.029 690.377L275.47 238.14L283.532 238.14L-167.967 690.377Z" fill="url(#paint19_linear_107_820)" fill-opacity="0.34"/>
<path d="M-365.092 552.628L-373.507 552.628L97.7778 80.2512L106.193 80.2512L-365.092 552.628Z" fill="url(#paint20_linear_107_820)" fill-opacity="0.34"/>
<path d="M-186.092 774.628L-194.507 774.628L276.778 302.251L285.193 302.251L-186.092 774.628Z" fill="url(#paint21_linear_107_820)" fill-opacity="0.34"/>
<path d="M-368.585 468.377L-377 468.377L94.2852 -3.99981L102.7 -3.99981L-368.585 468.377Z" fill="url(#paint22_linear_107_820)" fill-opacity="0.34"/>
<path d="M-189.585 690.377L-198 690.377L273.285 218L281.7 218L-189.585 690.377Z" fill="url(#paint23_linear_107_820)" fill-opacity="0.34"/>
</g>
<defs>
<linearGradient id="paint0_linear_107_820" x1="85.5956" y1="553.543" x2="85.5956" y2="212.993" gradientUnits="userSpaceOnUse">
<stop offset="0.48428" stop-color="#026874"/>
<stop offset="1" stop-color="#96DBE3" stop-opacity="0"/>
</linearGradient>
<linearGradient id="paint1_linear_107_820" x1="59.0474" y1="552.628" x2="59.0475" y2="125.109" gradientUnits="userSpaceOnUse">
<stop offset="0.3125" stop-color="#026874"/>
<stop offset="0.932692" stop-color="#96DBE3" stop-opacity="0"/>
</linearGradient>
<linearGradient id="paint2_linear_107_820" x1="48.1884" y1="552.628" x2="48.1885" y2="96.4801" gradientUnits="userSpaceOnUse">
<stop offset="0.3125" stop-color="#026874"/>
<stop offset="0.932692" stop-color="#96DBE3" stop-opacity="0"/>
</linearGradient>
<linearGradient id="paint3_linear_107_820" x1="34.3665" y1="552.628" x2="34.3666" y2="75.4858" gradientUnits="userSpaceOnUse">
<stop offset="0.3125" stop-color="#026874"/>
<stop offset="0.932692" stop-color="#96DBE3" stop-opacity="0"/>
</linearGradient>
<linearGradient id="paint4_linear_107_820" x1="19.0625" y1="552.628" x2="19.0626" y2="60.2173" gradientUnits="userSpaceOnUse">
<stop offset="0.3125" stop-color="#026874"/>
<stop offset="0.932692" stop-color="#96DBE3" stop-opacity="0"/>
</linearGradient>
<linearGradient id="paint5_linear_107_820" x1="5.98096" y1="552.628" x2="5.981" y2="37.3145" gradientUnits="userSpaceOnUse">
<stop offset="0.3125" stop-color="#026874"/>
<stop offset="0.932692" stop-color="#96DBE3" stop-opacity="0"/>
</linearGradient>
<linearGradient id="paint6_linear_107_820" x1="-7.10012" y1="552.628" x2="-7.10008" y2="14.4116" gradientUnits="userSpaceOnUse">
<stop offset="0.3125" stop-color="#026874"/>
<stop offset="0.932692" stop-color="#96DBE3" stop-opacity="0"/>
</linearGradient>
<linearGradient id="paint7_linear_107_820" x1="-21.6633" y1="552.628" x2="-21.6633" y2="-4.674" gradientUnits="userSpaceOnUse">
<stop offset="0.3125" stop-color="#026874"/>
<stop offset="0.932692" stop-color="#96DBE3" stop-opacity="0"/>
</linearGradient>
<linearGradient id="paint8_linear_107_820" x1="-103.639" y1="552.628" x2="-103.639" y2="148.011" gradientUnits="userSpaceOnUse">
<stop offset="0.48428" stop-color="#026874"/>
<stop offset="0.942308" stop-color="#96DBE3" stop-opacity="0"/>
</linearGradient>
<linearGradient id="paint9_linear_107_820" x1="-116.721" y1="552.628" x2="-116.721" y2="125.109" gradientUnits="userSpaceOnUse">
<stop offset="0.48428" stop-color="#026874"/>
<stop offset="0.942308" stop-color="#96DBE3" stop-opacity="0"/>
</linearGradient>
<linearGradient id="paint10_linear_107_820" x1="-134.247" y1="552.628" x2="-134.247" y2="113.657" gradientUnits="userSpaceOnUse">
<stop offset="0.48428" stop-color="#026874"/>
<stop offset="0.942308" stop-color="#96DBE3" stop-opacity="0"/>
</linearGradient>
<linearGradient id="paint11_linear_107_820" x1="-137.74" y1="468.377" x2="-137.739" y2="29.4062" gradientUnits="userSpaceOnUse">
<stop offset="0.48428" stop-color="#026874"/>
<stop offset="0.942308" stop-color="#96DBE3" stop-opacity="0"/>
</linearGradient>
<linearGradient id="paint12_linear_107_820" x1="41.2605" y1="690.377" x2="41.2605" y2="251.406" gradientUnits="userSpaceOnUse">
<stop offset="0.48428" stop-color="#026874"/>
<stop offset="0.942308" stop-color="#96DBE3" stop-opacity="0"/>
</linearGradient>
<linearGradient id="paint13_linear_107_820" x1="-150.292" y1="552.628" x2="-150.292" y2="98.3887" gradientUnits="userSpaceOnUse">
<stop offset="0.48428" stop-color="#026874"/>
<stop offset="0.942308" stop-color="#96DBE3" stop-opacity="0"/>
</linearGradient>
<linearGradient id="paint14_linear_107_820" x1="-153.784" y1="468.377" x2="-153.784" y2="14.1377" gradientUnits="userSpaceOnUse">
<stop offset="0.48428" stop-color="#026874"/>
<stop offset="0.942308" stop-color="#96DBE3" stop-opacity="0"/>
</linearGradient>
<linearGradient id="paint15_linear_107_820" x1="25.2162" y1="690.377" x2="25.2162" y2="236.138" gradientUnits="userSpaceOnUse">
<stop offset="0.48428" stop-color="#026874"/>
<stop offset="0.942308" stop-color="#96DBE3" stop-opacity="0"/>
</linearGradient>
<linearGradient id="paint16_linear_107_820" x1="-165.595" y1="552.628" x2="-165.595" y2="81.2115" gradientUnits="userSpaceOnUse">
<stop offset="0.48428" stop-color="#026874"/>
<stop offset="0.942308" stop-color="#96DBE3" stop-opacity="0"/>
</linearGradient>
<linearGradient id="paint17_linear_107_820" x1="13.4049" y1="774.628" x2="13.4049" y2="303.212" gradientUnits="userSpaceOnUse">
<stop offset="0.48428" stop-color="#026874"/>
<stop offset="0.942308" stop-color="#96DBE3" stop-opacity="0"/>
</linearGradient>
<linearGradient id="paint18_linear_107_820" x1="-169.088" y1="468.377" x2="-169.088" y2="-3.03944" gradientUnits="userSpaceOnUse">
<stop offset="0.48428" stop-color="#026874"/>
<stop offset="0.942308" stop-color="#96DBE3" stop-opacity="0"/>
</linearGradient>
<linearGradient id="paint19_linear_107_820" x1="9.91219" y1="690.377" x2="9.91224" y2="218.961" gradientUnits="userSpaceOnUse">
<stop offset="0.48428" stop-color="#026874"/>
<stop offset="0.942308" stop-color="#96DBE3" stop-opacity="0"/>
</linearGradient>
<linearGradient id="paint20_linear_107_820" x1="-179.418" y1="552.628" x2="-179.417" y2="60.2173" gradientUnits="userSpaceOnUse">
<stop offset="0.48428" stop-color="#026874"/>
<stop offset="0.942308" stop-color="#96DBE3" stop-opacity="0"/>
</linearGradient>
<linearGradient id="paint21_linear_107_820" x1="-0.417521" y1="774.628" x2="-0.417478" y2="282.217" gradientUnits="userSpaceOnUse">
<stop offset="0.48428" stop-color="#026874"/>
<stop offset="0.942308" stop-color="#96DBE3" stop-opacity="0"/>
</linearGradient>
<linearGradient id="paint22_linear_107_820" x1="-182.91" y1="468.377" x2="-182.91" y2="-24.0337" gradientUnits="userSpaceOnUse">
<stop offset="0.48428" stop-color="#026874"/>
<stop offset="0.942308" stop-color="#96DBE3" stop-opacity="0"/>
</linearGradient>
<linearGradient id="paint23_linear_107_820" x1="-3.9102" y1="690.377" x2="-3.91015" y2="197.966" gradientUnits="userSpaceOnUse">
<stop offset="0.48428" stop-color="#026874"/>
<stop offset="0.942308" stop-color="#96DBE3" stop-opacity="0"/>
</linearGradient>
<clipPath id="clip0_107_820">
<rect width="313" height="397" fill="white" transform="matrix(-1 0 0 1 313 0)"/>
</clipPath>
</defs>
</svg>
