<svg width="314" height="275" viewBox="0 0 314 275" fill="none" xmlns="http://www.w3.org/2000/svg">
<g clip-path="url(#clip0_292_2544)">
<path d="M358.264 541L365 541L51.7365 228L45 228L358.264 541Z" fill="url(#paint0_linear_292_2544)" fill-opacity="0.34"/>
<path d="M383.264 540L390 540L12.7364 163L6 163L383.264 540Z" fill="url(#paint1_linear_292_2544)" fill-opacity="0.34"/>
<path d="M402.807 540L410 540L7.19256 137L-4.7138e-06 137L402.807 540Z" fill="url(#paint2_linear_292_2544)" fill-opacity="0.34"/>
<path d="M422.492 540L430 540L9.50833 119L1.99999 119L422.492 540Z" fill="url(#paint3_linear_292_2544)" fill-opacity="0.34"/>
<path d="M442.229 540L450 540L14.7715 105L6.99999 105L442.229 540Z" fill="url(#paint4_linear_292_2544)" fill-opacity="0.34"/>
<path d="M462.86 540L471 540L15.1399 85L6.99996 85L462.86 540Z" fill="url(#paint5_linear_292_2544)" fill-opacity="0.34"/>
<path d="M482.509 540L491 540L15.4907 65L7.00002 65L482.509 540Z" fill="url(#paint6_linear_292_2544)" fill-opacity="0.34"/>
<path d="M502.229 540L511 540L19.7714 48L11 48L502.229 540Z" fill="url(#paint7_linear_292_2544)" fill-opacity="0.34"/>
<path d="M524.614 540L531 540L173.386 183L167 183L524.614 540Z" fill="url(#paint8_linear_292_2544)" fill-opacity="0.34"/>
<path d="M545.246 540L552 540L173.754 163L167 163L545.246 540Z" fill="url(#paint9_linear_292_2544)" fill-opacity="0.34"/>
<path d="M565.071 540L572 540L183.929 152L177 152L565.071 540Z" fill="url(#paint10_linear_292_2544)" fill-opacity="0.34"/>
<path d="M584.843 540L592 540L191.157 139L184 139L584.843 540Z" fill="url(#paint11_linear_292_2544)" fill-opacity="0.34"/>
<path d="M604.579 540L612 540L196.421 124L189 124L604.579 540Z" fill="url(#paint12_linear_292_2544)" fill-opacity="0.34"/>
<path d="M625.246 540L633 540L198.754 105L191 105L625.246 540Z" fill="url(#paint13_linear_292_2544)" fill-opacity="0.34"/>
</g>
<defs>
<linearGradient id="paint0_linear_292_2544" x1="209.631" y1="541" x2="209.631" y2="228" gradientUnits="userSpaceOnUse">
<stop offset="0.48428" stop-color="#026874"/>
<stop offset="1" stop-color="#96DBE3" stop-opacity="0"/>
</linearGradient>
<linearGradient id="paint1_linear_292_2544" x1="234.631" y1="540" x2="234.631" y2="147.011" gradientUnits="userSpaceOnUse">
<stop offset="0.3125" stop-color="#026874"/>
<stop offset="0.932692" stop-color="#96DBE3" stop-opacity="0"/>
</linearGradient>
<linearGradient id="paint2_linear_292_2544" x1="244.111" y1="540" x2="244.111" y2="119.908" gradientUnits="userSpaceOnUse">
<stop offset="0.3125" stop-color="#026874"/>
<stop offset="0.932692" stop-color="#96DBE3" stop-opacity="0"/>
</linearGradient>
<linearGradient id="paint3_linear_292_2544" x1="256.829" y1="540" x2="256.829" y2="101.145" gradientUnits="userSpaceOnUse">
<stop offset="0.3125" stop-color="#026874"/>
<stop offset="0.932692" stop-color="#96DBE3" stop-opacity="0"/>
</linearGradient>
<linearGradient id="paint4_linear_292_2544" x1="270.759" y1="540" x2="270.759" y2="86.5513" gradientUnits="userSpaceOnUse">
<stop offset="0.3125" stop-color="#026874"/>
<stop offset="0.932692" stop-color="#96DBE3" stop-opacity="0"/>
</linearGradient>
<linearGradient id="paint5_linear_292_2544" x1="283.263" y1="540" x2="283.263" y2="65.7031" gradientUnits="userSpaceOnUse">
<stop offset="0.3125" stop-color="#026874"/>
<stop offset="0.932692" stop-color="#96DBE3" stop-opacity="0"/>
</linearGradient>
<linearGradient id="paint6_linear_292_2544" x1="295.171" y1="540" x2="295.171" y2="44.8549" gradientUnits="userSpaceOnUse">
<stop offset="0.3125" stop-color="#026874"/>
<stop offset="0.932692" stop-color="#96DBE3" stop-opacity="0"/>
</linearGradient>
<linearGradient id="paint7_linear_292_2544" x1="308.697" y1="540" x2="308.697" y2="27.1339" gradientUnits="userSpaceOnUse">
<stop offset="0.3125" stop-color="#026874"/>
<stop offset="0.932692" stop-color="#96DBE3" stop-opacity="0"/>
</linearGradient>
<linearGradient id="paint8_linear_292_2544" x1="383.723" y1="540" x2="383.723" y2="167.859" gradientUnits="userSpaceOnUse">
<stop offset="0.48428" stop-color="#026874"/>
<stop offset="0.942308" stop-color="#96DBE3" stop-opacity="0"/>
</linearGradient>
<linearGradient id="paint9_linear_292_2544" x1="396.227" y1="540" x2="396.227" y2="147.011" gradientUnits="userSpaceOnUse">
<stop offset="0.48428" stop-color="#026874"/>
<stop offset="0.942308" stop-color="#96DBE3" stop-opacity="0"/>
</linearGradient>
<linearGradient id="paint10_linear_292_2544" x1="412.181" y1="540" x2="412.181" y2="135.545" gradientUnits="userSpaceOnUse">
<stop offset="0.48428" stop-color="#026874"/>
<stop offset="0.942308" stop-color="#96DBE3" stop-opacity="0"/>
</linearGradient>
<linearGradient id="paint11_linear_292_2544" x1="426.921" y1="540" x2="426.921" y2="121.993" gradientUnits="userSpaceOnUse">
<stop offset="0.48428" stop-color="#026874"/>
<stop offset="0.942308" stop-color="#96DBE3" stop-opacity="0"/>
</linearGradient>
<linearGradient id="paint12_linear_292_2544" x1="440.852" y1="540" x2="440.852" y2="106.357" gradientUnits="userSpaceOnUse">
<stop offset="0.48428" stop-color="#026874"/>
<stop offset="0.942308" stop-color="#96DBE3" stop-opacity="0"/>
</linearGradient>
<linearGradient id="paint13_linear_292_2544" x1="454.164" y1="540" x2="454.164" y2="86.5513" gradientUnits="userSpaceOnUse">
<stop offset="0.48428" stop-color="#026874"/>
<stop offset="0.942308" stop-color="#96DBE3" stop-opacity="0"/>
</linearGradient>
<clipPath id="clip0_292_2544">
<rect width="314" height="275" fill="white"/>
</clipPath>
</defs>
</svg>
